<?xml version="1.0" standalone="no"?>
<!DOCTYPE svg PUBLIC "-//W3C//DTD SVG 20010904//EN"
 "http://www.w3.org/TR/2001/REC-SVG-20010904/DTD/svg10.dtd">
<svg version="1.0" xmlns="http://www.w3.org/2000/svg"
 width="525.000000pt" height="147.000000pt" viewBox="0 0 525.000000 147.000000"
 preserveAspectRatio="xMidYMid meet">

<g transform="translate(0.000000,147.000000) scale(0.100000,-0.100000)"
fill="#000000" stroke="none">
<path d="M788 1459 c-24 -13 -23 -36 2 -49 41 -22 84 14 54 45 -18 17 -32 19
-56 4z"/>
<path d="M790 1357 c-28 -14 -64 -81 -82 -152 -6 -27 -15 -53 -18 -57 -3 -4
-41 -13 -85 -19 -116 -16 -126 -28 -25 -31 l85 -2 -85 -5 -85 -6 55 -12 c30
-7 71 -14 90 -15 l34 -3 -3 -55 c-1 -30 -5 -58 -7 -61 -2 -4 -26 1 -54 12
-184 70 -381 32 -498 -96 -76 -83 -97 -144 -97 -285 0 -104 3 -121 26 -171 71
-150 221 -229 414 -216 77 4 165 24 165 36 -1 3 -7 33 -14 66 -11 55 -14 60
-37 58 -13 -1 -53 -5 -90 -9 -122 -12 -217 35 -260 131 -22 46 -25 157 -8 216
25 80 99 140 191 154 55 8 95 -10 195 -90 l61 -49 7 -85 c18 -227 76 -408 135
-424 23 -6 75 32 85 63 6 17 9 17 60 -10 30 -16 89 -36 132 -46 66 -14 88 -15
145 -6 138 24 241 80 278 151 22 44 27 122 9 168 -15 42 -84 108 -137 131 -26
11 -72 31 -102 45 -69 30 -90 50 -90 87 0 64 100 90 216 55 27 -8 51 -11 55
-7 10 12 39 124 34 132 -13 21 -138 43 -218 38 -144 -9 -232 -67 -263 -174
-37 -129 34 -228 215 -295 106 -40 150 -100 103 -142 -63 -57 -207 -60 -319
-8 l-65 31 5 37 c22 154 30 359 20 479 -6 71 -10 131 -8 132 2 2 32 7 67 12
121 15 132 24 38 31 l-85 5 85 2 c105 3 90 16 -36 33 l-90 11 -18 69 c-18 71
-47 123 -81 145 -16 11 -25 11 -45 1z m50 -186 c15 -29 13 -31 -25 -31 -39 0
-40 2 -23 30 16 25 34 25 48 1z m46 -198 c10 -95 9 -359 -1 -404 -7 -32 -10
-29 -78 106 l-70 140 6 101 c4 56 9 109 13 118 5 12 20 16 64 16 l58 0 8 -77z
m-56 -600 c0 -7 -6 -13 -14 -13 -18 0 -44 55 -51 111 l-6 44 35 -65 c19 -36
35 -71 36 -77z"/>
<path d="M2250 845 l0 -355 65 0 65 0 0 355 0 355 -65 0 -65 0 0 -355z"/>
<path d="M3620 1140 l0 -60 65 0 65 0 0 60 0 60 -65 0 -65 0 0 -60z"/>
<path d="M1795 1154 c-204 -72 -259 -447 -90 -603 130 -119 368 -78 430 74 32
77 33 75 -38 75 -63 0 -64 -1 -88 -37 -31 -49 -86 -76 -134 -67 -76 14 -121
82 -132 198 -13 143 44 253 137 263 57 5 108 -20 129 -64 16 -32 17 -33 84
-33 66 0 68 1 62 23 -26 85 -81 147 -153 171 -56 19 -153 19 -207 0z"/>
<path d="M3038 1063 l-3 -68 -37 -3 -38 -3 0 -50 0 -49 40 0 40 0 0 -169 c0
-166 1 -170 25 -199 27 -33 76 -45 137 -35 38 6 38 6 38 54 0 48 -1 49 -30 49
-19 0 -33 7 -40 19 -5 11 -10 78 -10 150 l0 131 85 0 85 0 0 -169 c0 -166 1
-170 25 -199 27 -33 77 -45 138 -35 37 6 37 6 37 54 0 48 -1 49 -30 49 -19 0
-33 7 -40 19 -5 11 -10 78 -10 150 l0 131 45 0 45 0 0 49 0 50 -42 3 -43 3 -3
68 -3 67 -59 0 -59 0 -3 -67 -3 -68 -80 0 -80 0 -3 68 -3 67 -59 0 -59 0 -3
-67z"/>
<path d="M2641 999 c-88 -17 -151 -86 -172 -187 -38 -183 62 -332 221 -332
137 0 230 107 230 265 0 177 -119 285 -279 254z m107 -122 c38 -31 56 -150 31
-214 -39 -103 -149 -96 -179 12 -24 84 0 187 50 212 27 15 75 10 98 -10z"/>
<path d="M3979 1000 c-88 -15 -132 -66 -133 -151 0 -81 41 -117 179 -160 76
-23 95 -47 70 -85 -24 -37 -88 -34 -125 6 -25 26 -35 30 -84 30 -65 0 -70 -10
-33 -74 34 -59 83 -81 187 -81 72 0 91 4 123 23 48 31 70 73 69 138 -1 85 -41
124 -166 161 -66 19 -96 39 -96 63 0 44 77 54 116 15 20 -21 35 -25 79 -25 64
0 70 14 32 71 -38 58 -123 84 -218 69z"/>
<path d="M3620 740 l0 -250 65 0 65 0 0 250 0 250 -65 0 -65 0 0 -250z"/>
<path d="M3780 375 c0 -21 5 -25 30 -25 25 0 30 4 30 25 0 21 -5 25 -30 25
-25 0 -30 -4 -30 -25z"/>
<path d="M4090 255 l0 -145 30 0 30 0 0 68 c0 78 8 95 41 90 23 -3 24 -7 27
-80 3 -75 4 -78 27 -78 25 0 25 1 25 88 0 73 -3 92 -18 105 -21 19 -54 22 -83
7 -18 -10 -19 -7 -19 40 0 49 -1 50 -30 50 l-30 0 0 -145z"/>
<path d="M1712 373 c-10 -18 -82 -244 -82 -256 0 -4 11 -7 26 -7 19 0 28 7 35
30 10 28 15 30 59 30 44 0 49 -2 59 -30 8 -24 16 -30 40 -30 17 0 31 3 31 8
-1 4 -22 65 -48 137 -46 127 -48 130 -79 133 -22 2 -34 -2 -41 -15z m57 -92
c17 -52 14 -61 -19 -61 -34 0 -35 3 -18 65 13 49 19 48 37 -4z"/>
<path d="M2010 250 l0 -140 30 0 c30 0 30 1 30 55 l0 55 60 0 c57 0 60 1 60
25 0 24 -3 25 -60 25 l-60 0 0 35 0 35 66 0 c62 0 65 1 62 23 -3 21 -8 22 -95
25 l-93 3 0 -141z"/>
<path d="M3540 251 l0 -141 30 0 c30 0 30 1 30 55 l0 55 35 0 c29 0 37 -5 45
-26 6 -14 10 -39 10 -55 0 -25 4 -29 28 -29 26 0 27 1 23 52 -1 29 -7 58 -12
64 -6 7 -3 22 6 40 21 40 19 58 -8 90 -21 24 -32 28 -105 32 l-82 5 0 -142z
m134 76 c10 -7 17 -22 15 -33 -3 -15 -14 -20 -47 -22 l-42 -3 0 35 c0 33 3 36
28 36 16 0 36 -6 46 -13z"/>
<path d="M4490 378 c-84 -45 -95 -198 -18 -252 28 -20 100 -21 137 -2 27 14
55 59 44 70 -14 13 -43 5 -67 -19 -32 -32 -50 -32 -83 1 -23 23 -25 31 -21 81
3 39 10 60 23 69 27 20 63 17 82 -6 10 -11 30 -20 44 -20 22 0 26 4 22 19 -14
54 -108 88 -163 59z"/>
<path d="M4700 250 l0 -140 25 0 c24 0 24 1 27 108 l3 107 18 -70 c40 -157 36
-147 64 -143 24 3 29 11 54 98 l27 95 1 -97 1 -98 30 0 30 0 0 141 0 140 -42
-3 -42 -3 -27 -90 c-15 -50 -28 -92 -29 -95 0 -3 -11 33 -24 80 -12 47 -26 91
-30 98 -4 7 -25 12 -47 12 l-39 0 0 -140z"/>
<path d="M5059 361 c-52 -53 -27 -108 61 -134 51 -15 70 -38 51 -61 -18 -22
-58 -20 -78 4 -10 11 -30 20 -44 20 -22 0 -26 -4 -22 -20 16 -61 140 -84 188
-35 30 29 33 74 8 104 -10 12 -43 29 -73 39 -43 13 -55 22 -55 37 0 26 62 35
71 11 8 -20 64 -22 64 -2 0 8 -14 26 -31 40 -44 37 -101 36 -140 -3z"/>
<path d="M2670 346 c0 -15 -7 -26 -20 -29 -11 -3 -20 -13 -20 -22 0 -9 9 -19
20 -22 17 -5 20 -14 20 -72 0 -76 9 -91 57 -91 26 0 33 4 33 19 0 10 -9 21
-20 24 -17 4 -20 14 -20 61 0 49 2 56 20 56 15 0 20 7 20 25 0 18 -5 25 -20
25 -15 0 -20 7 -20 25 0 20 -5 25 -25 25 -20 0 -25 -5 -25 -24z"/>
<path d="M2263 305 c-28 -19 -47 -77 -39 -119 7 -37 39 -70 75 -79 31 -8 86
15 101 42 9 19 8 21 -15 21 -14 0 -34 -6 -45 -12 -23 -15 -53 -2 -58 26 -3 13
7 16 62 16 64 0 66 1 66 25 0 33 -25 81 -45 89 -29 11 -80 6 -102 -9z m85 -47
c3 -15 -4 -18 -32 -18 -38 0 -44 8 -24 28 17 17 52 11 56 -10z"/>
<path d="M2461 294 c-11 -15 -18 -30 -15 -35 8 -14 40 -10 54 6 11 13 50 22
50 11 0 -2 2 -11 6 -19 4 -11 -6 -16 -43 -20 -50 -5 -83 -32 -83 -67 0 -28 33
-62 60 -61 14 0 46 1 73 1 l47 0 0 85 c0 104 -14 125 -84 125 -36 0 -48 -5
-65 -26z m99 -100 c0 -3 -5 -14 -10 -25 -19 -34 -70 -19 -56 16 5 14 66 22 66
9z"/>
<path d="M2794 305 c-4 -8 -4 -49 -2 -90 4 -82 18 -108 59 -106 13 0 45 1 72
1 l47 0 0 106 0 105 -27 -3 c-28 -3 -28 -4 -31 -80 -2 -58 -6 -78 -19 -82 -31
-12 -43 13 -43 90 0 72 -1 74 -25 74 -14 0 -28 -7 -31 -15z"/>
<path d="M3017 313 c-4 -3 -7 -51 -7 -105 l0 -98 30 0 30 0 0 60 c0 47 4 64
20 80 11 11 25 20 30 20 6 0 10 11 10 25 0 29 -16 32 -42 8 -17 -15 -18 -15
-18 0 0 17 -39 24 -53 10z"/>
<path d="M3193 305 c-28 -19 -47 -77 -39 -119 7 -37 39 -70 75 -79 31 -8 86
15 101 42 9 19 8 21 -15 21 -14 0 -34 -6 -45 -12 -23 -15 -53 -2 -58 26 -3 13
7 16 62 16 64 0 66 1 66 25 0 33 -25 81 -45 89 -29 11 -80 6 -102 -9z m85 -47
c3 -15 -4 -18 -32 -18 -38 0 -44 8 -24 28 17 17 52 11 56 -10z"/>
<path d="M3787 313 c-4 -3 -7 -51 -7 -105 l0 -98 30 0 30 0 0 105 c0 103 0
105 -23 105 -13 0 -27 -3 -30 -7z"/>
<path d="M3918 295 c-84 -83 -7 -224 98 -180 32 13 59 47 47 59 -12 12 -51 6
-57 -9 -8 -21 -43 -19 -56 4 -16 31 -12 76 9 95 18 16 51 13 51 -5 0 -5 13 -9
29 -9 24 0 28 3 24 20 -14 53 -102 68 -145 25z"/>
<path d="M3380 215 c0 -24 3 -25 55 -25 52 0 55 1 55 25 0 24 -3 25 -55 25
-52 0 -55 -1 -55 -25z"/>
</g>
</svg>
